<svg xmlns="http://www.w3.org/2000/svg" xmlns:xlink="http://www.w3.org/1999/xlink" contentStyleType="text/css" data-diagram-type="CLASS" height="740px" preserveAspectRatio="none" style="width:1431px;height:740px;background:#FFFFFF;" version="1.1" viewBox="0 0 1431 740" width="1431px" zoomAndPan="magnify"><title>Diagramme de Classes V2 : CursorCage (Architecture D&#233;coupl&#233;e)</title><defs/><g><g class="title" data-source-line="9"><text fill="#000000" font-family="Verdana" font-size="22" font-weight="bold" lengthAdjust="spacing" textLength="809.1768" x="306.6123" y="40.4209">Diagramme de Classes V2 : CursorCage (Architecture D&#233;coupl&#233;e)</text></g><!--class IEventBus--><g class="entity" data-entity="IEventBus" data-source-line="11" data-uid="ent0002" id="entity_IEventBus"><rect fill="#FFFFFF" height="104.8906" rx="4" ry="4" style="stroke:#000000;stroke-width:1;" width="381.6113" x="880.5" y="81.6094"/><ellipse cx="1027.5522" cy="99.7578" fill="#FFFFFF" rx="9" ry="9" style="stroke:#000000;stroke-width:1;"/><path d="M1023.4741,95.5234 L1023.4741,93.3672 L1030.8647,93.3672 L1030.8647,95.5234 L1028.396,95.5234 L1028.396,103.6016 L1030.8647,103.6016 L1030.8647,105.7578 L1023.4741,105.7578 L1023.4741,103.6016 L1025.9429,103.6016 L1025.9429,95.5234 L1023.4741,95.5234 Z " fill="#000000"/><text fill="#000000" font-family="Verdana" font-size="14" font-style="italic" lengthAdjust="spacing" textLength="70.0068" x="1050.0522" y="104.6045">IEventBus</text><line style="stroke:#000000;stroke-width:1;" x1="881.5" x2="1261.1113" y1="117.9063" y2="117.9063"/><line style="stroke:#000000;stroke-width:1;" x1="881.5" x2="1261.1113" y1="125.9063" y2="125.9063"/><text fill="#000000" font-family="Verdana" font-size="14" lengthAdjust="spacing" textLength="359.6113" x="891.5" y="147.9014">+subscribe(eventType : String, callback : Function)</text><text fill="#000000" font-family="Verdana" font-size="14" lengthAdjust="spacing" textLength="326.6416" x="891.5" y="174.1982">+publish(eventType : String, payload : Object)</text></g><!--class CursorCageApp--><g class="entity" data-entity="CursorCageApp" data-source-line="16" data-uid="ent0003" id="entity_CursorCageApp"><rect fill="#FFFFFF" height="131.1875" rx="4" ry="4" style="stroke:#000000;stroke-width:1;" width="195.9609" x="411.5" y="68.6094"/><ellipse cx="446.4313" cy="86.7578" fill="#FFFFFF" rx="9" ry="9" style="stroke:#000000;stroke-width:1;"/><path d="M449.4001,92.3984 Q448.822,92.6953 448.1813,92.8359 Q447.5407,92.9922 446.8376,92.9922 Q444.3376,92.9922 443.0095,91.3516 Q441.697,89.6953 441.697,86.5703 Q441.697,83.4453 443.0095,81.7891 Q444.3376,80.1328 446.8376,80.1328 Q447.5407,80.1328 448.1813,80.2891 Q448.8376,80.4453 449.4001,80.7422 L449.4001,83.4609 Q448.7751,82.8828 448.1813,82.6172 Q447.5876,82.3359 446.9626,82.3359 Q445.6188,82.3359 444.9313,83.4141 Q444.2438,84.4766 444.2438,86.5703 Q444.2438,88.6641 444.9313,89.7422 Q445.6188,90.8047 446.9626,90.8047 Q447.5876,90.8047 448.1813,90.5391 Q448.7751,90.2578 449.4001,89.6797 L449.4001,92.3984 Z " fill="#000000"/><text fill="#000000" font-family="Verdana" font-size="14" lengthAdjust="spacing" textLength="109.2246" x="468.305" y="91.6045">CursorCageApp</text><line style="stroke:#000000;stroke-width:1;" x1="412.5" x2="606.4609" y1="104.9063" y2="104.9063"/><line style="stroke:#000000;stroke-width:1;" x1="412.5" x2="606.4609" y1="112.9063" y2="112.9063"/><text fill="#000000" font-family="Verdana" font-size="14" lengthAdjust="spacing" textLength="55.2617" x="422.5" y="134.9014">+start()</text><text fill="#000000" font-family="Verdana" font-size="14" lengthAdjust="spacing" textLength="52.8896" x="422.5" y="161.1982">+stop()</text><text fill="#000000" font-family="Verdana" font-size="14" lengthAdjust="spacing" textLength="173.9609" x="422.5" y="187.4951">-initializeDependencies()</text></g><!--class EventBus--><g class="entity" data-entity="EventBus" data-source-line="22" data-uid="ent0004" id="entity_EventBus"><rect fill="#FFFFFF" height="52.2969" rx="4" ry="4" style="stroke:#000000;stroke-width:1;" width="103.8779" x="457.5" y="348.6094"/><ellipse cx="470.5" cy="366.7578" fill="#FFFFFF" rx="9" ry="9" style="stroke:#000000;stroke-width:1;"/><path d="M473.4688,372.3984 Q472.8906,372.6953 472.25,372.8359 Q471.6094,372.9922 470.9063,372.9922 Q468.4063,372.9922 467.0781,371.3516 Q465.7656,369.6953 465.7656,366.5703 Q465.7656,363.4453 467.0781,361.7891 Q468.4063,360.1328 470.9063,360.1328 Q471.6094,360.1328 472.25,360.2891 Q472.9063,360.4453 473.4688,360.7422 L473.4688,363.4609 Q472.8438,362.8828 472.25,362.6172 Q471.6563,362.3359 471.0313,362.3359 Q469.6875,362.3359 469,363.4141 Q468.3125,364.4766 468.3125,366.5703 Q468.3125,368.6641 469,369.7422 Q469.6875,370.8047 471.0313,370.8047 Q471.6563,370.8047 472.25,370.5391 Q472.8438,370.2578 473.4688,369.6797 L473.4688,372.3984 Z " fill="#000000"/><text fill="#000000" font-family="Verdana" font-size="14" lengthAdjust="spacing" textLength="65.8779" x="487.5" y="371.6045">EventBus</text><line style="stroke:#000000;stroke-width:1;" x1="458.5" x2="560.3779" y1="384.9063" y2="384.9063"/><line style="stroke:#000000;stroke-width:1;" x1="458.5" x2="560.3779" y1="392.9063" y2="392.9063"/></g><!--class CursorManager--><g class="entity" data-entity="CursorManager" data-source-line="25" data-uid="ent0006" id="entity_CursorManager"><rect fill="#FFFFFF" height="210.0781" rx="4" ry="4" style="stroke:#000000;stroke-width:1;" width="267.0684" x="612" y="269.6094"/><ellipse cx="683.0913" cy="287.7578" fill="#FFFFFF" rx="9" ry="9" style="stroke:#000000;stroke-width:1;"/><path d="M686.0601,293.3984 Q685.4819,293.6953 684.8413,293.8359 Q684.2007,293.9922 683.4976,293.9922 Q680.9976,293.9922 679.6694,292.3516 Q678.3569,290.6953 678.3569,287.5703 Q678.3569,284.4453 679.6694,282.7891 Q680.9976,281.1328 683.4976,281.1328 Q684.2007,281.1328 684.8413,281.2891 Q685.4976,281.4453 686.0601,281.7422 L686.0601,284.4609 Q685.4351,283.8828 684.8413,283.6172 Q684.2476,283.3359 683.6226,283.3359 Q682.2788,283.3359 681.5913,284.4141 Q680.9038,285.4766 680.9038,287.5703 Q680.9038,289.6641 681.5913,290.7422 Q682.2788,291.8047 683.6226,291.8047 Q684.2476,291.8047 684.8413,291.5391 Q685.4351,291.2578 686.0601,290.6797 L686.0601,293.3984 Z " fill="#000000"/><text fill="#000000" font-family="Verdana" font-size="14" lengthAdjust="spacing" textLength="107.3857" x="705.5913" y="292.6045">CursorManager</text><line style="stroke:#000000;stroke-width:1;" x1="613" x2="878.0684" y1="305.9063" y2="305.9063"/><text fill="#000000" font-family="Verdana" font-size="14" lengthAdjust="spacing" textLength="135.4951" x="623" y="327.9014">-isLocked : boolean</text><text fill="#000000" font-family="Verdana" font-size="14" lengthAdjust="spacing" textLength="192.1924" x="623" y="354.1982">-currentBounds : Rectangle</text><line style="stroke:#000000;stroke-width:1;" x1="613" x2="878.0684" y1="366.5" y2="366.5"/><text fill="#000000" font-family="Verdana" font-size="14" lengthAdjust="spacing" textLength="245.0684" x="623" y="388.4951">+lockToWindow(windowId : String)</text><text fill="#000000" font-family="Verdana" font-size="14" lengthAdjust="spacing" textLength="231.7314" x="623" y="414.792">+lockToScreen(screenId : String)</text><text fill="#000000" font-family="Verdana" font-size="14" lengthAdjust="spacing" textLength="68.6602" x="623" y="441.0889">+unlock()</text><text fill="#000000" font-family="Verdana" font-size="14" lengthAdjust="spacing" textLength="155.3262" x="623" y="467.3857">-checkTargetValidity()</text></g><!--class HotkeyManager--><g class="entity" data-entity="HotkeyManager" data-source-line="34" data-uid="ent0007" id="entity_HotkeyManager"><rect fill="#FFFFFF" height="131.1875" rx="4" ry="4" style="stroke:#000000;stroke-width:1;" width="159.9014" x="1264.5" y="309.1094"/><ellipse cx="1282.4263" cy="327.2578" fill="#FFFFFF" rx="9" ry="9" style="stroke:#000000;stroke-width:1;"/><path d="M1285.395,332.8984 Q1284.8169,333.1953 1284.1763,333.3359 Q1283.5356,333.4922 1282.8325,333.4922 Q1280.3325,333.4922 1279.0044,331.8516 Q1277.6919,330.1953 1277.6919,327.0703 Q1277.6919,323.9453 1279.0044,322.2891 Q1280.3325,320.6328 1282.8325,320.6328 Q1283.5356,320.6328 1284.1763,320.7891 Q1284.8325,320.9453 1285.395,321.2422 L1285.395,323.9609 Q1284.77,323.3828 1284.1763,323.1172 Q1283.5825,322.8359 1282.9575,322.8359 Q1281.6138,322.8359 1280.9263,323.9141 Q1280.2388,324.9766 1280.2388,327.0703 Q1280.2388,329.1641 1280.9263,330.2422 Q1281.6138,331.3047 1282.9575,331.3047 Q1283.5825,331.3047 1284.1763,331.0391 Q1284.77,330.7578 1285.395,330.1797 L1285.395,332.8984 Z " fill="#000000"/><text fill="#000000" font-family="Verdana" font-size="14" lengthAdjust="spacing" textLength="110.9541" x="1300.521" y="332.1045">HotkeyManager</text><line style="stroke:#000000;stroke-width:1;" x1="1265.5" x2="1423.4014" y1="345.4063" y2="345.4063"/><line style="stroke:#000000;stroke-width:1;" x1="1265.5" x2="1423.4014" y1="353.4063" y2="353.4063"/><text fill="#000000" font-family="Verdana" font-size="14" lengthAdjust="spacing" textLength="126.54" x="1275.5" y="375.4014">+registerHotkey()</text><text fill="#000000" font-family="Verdana" font-size="14" lengthAdjust="spacing" textLength="60.7031" x="1275.5" y="401.6982">+listen()</text><text fill="#000000" font-family="Verdana" font-size="14" lengthAdjust="spacing" textLength="137.9014" x="1275.5" y="427.9951">-onHotkeyPressed()</text></g><!--class UIManager--><g class="entity" data-entity="UIManager" data-source-line="40" data-uid="ent0008" id="entity_UIManager"><rect fill="#FFFFFF" height="131.1875" rx="4" ry="4" style="stroke:#000000;stroke-width:1;" width="284.8623" x="929" y="309.1094"/><ellipse cx="1024.8101" cy="327.2578" fill="#FFFFFF" rx="9" ry="9" style="stroke:#000000;stroke-width:1;"/><path d="M1027.7788,332.8984 Q1027.2007,333.1953 1026.5601,333.3359 Q1025.9194,333.4922 1025.2163,333.4922 Q1022.7163,333.4922 1021.3882,331.8516 Q1020.0757,330.1953 1020.0757,327.0703 Q1020.0757,323.9453 1021.3882,322.2891 Q1022.7163,320.6328 1025.2163,320.6328 Q1025.9194,320.6328 1026.5601,320.7891 Q1027.2163,320.9453 1027.7788,321.2422 L1027.7788,323.9609 Q1027.1538,323.3828 1026.5601,323.1172 Q1025.9663,322.8359 1025.3413,322.8359 Q1023.9976,322.8359 1023.3101,323.9141 Q1022.6226,324.9766 1022.6226,327.0703 Q1022.6226,329.1641 1023.3101,330.2422 Q1023.9976,331.3047 1025.3413,331.3047 Q1025.9663,331.3047 1026.5601,331.0391 Q1027.1538,330.7578 1027.7788,330.1797 L1027.7788,332.8984 Z " fill="#000000"/><text fill="#000000" font-family="Verdana" font-size="14" lengthAdjust="spacing" textLength="75.7422" x="1047.3101" y="332.1045">UIManager</text><line style="stroke:#000000;stroke-width:1;" x1="930" x2="1212.8623" y1="345.4063" y2="345.4063"/><line style="stroke:#000000;stroke-width:1;" x1="930" x2="1212.8623" y1="353.4063" y2="353.4063"/><text fill="#000000" font-family="Verdana" font-size="14" lengthAdjust="spacing" textLength="116.2588" x="940" y="375.4014">+showSettings()</text><text fill="#000000" font-family="Verdana" font-size="14" lengthAdjust="spacing" textLength="262.8623" x="940" y="401.6982">+updateTrayIcon(isLocked : boolean)</text><text fill="#000000" font-family="Verdana" font-size="14" lengthAdjust="spacing" textLength="224.3828" x="940" y="427.9951">+showNotification(msg : String)</text></g><!--class SettingsManager--><g class="entity" data-entity="SettingsManager" data-source-line="46" data-uid="ent0009" id="entity_SettingsManager"><rect fill="#FFFFFF" height="183.7813" rx="4" ry="4" style="stroke:#000000;stroke-width:1;" width="272.585" x="935" y="549.6094"/><ellipse cx="1003.1484" cy="567.7578" fill="#FFFFFF" rx="9" ry="9" style="stroke:#000000;stroke-width:1;"/><path d="M1006.1172,573.3984 Q1005.5391,573.6953 1004.8984,573.8359 Q1004.2578,573.9922 1003.5547,573.9922 Q1001.0547,573.9922 999.7266,572.3516 Q998.4141,570.6953 998.4141,567.5703 Q998.4141,564.4453 999.7266,562.7891 Q1001.0547,561.1328 1003.5547,561.1328 Q1004.2578,561.1328 1004.8984,561.2891 Q1005.5547,561.4453 1006.1172,561.7422 L1006.1172,564.4609 Q1005.4922,563.8828 1004.8984,563.6172 Q1004.3047,563.3359 1003.6797,563.3359 Q1002.3359,563.3359 1001.6484,564.4141 Q1000.9609,565.4766 1000.9609,567.5703 Q1000.9609,569.6641 1001.6484,570.7422 Q1002.3359,571.8047 1003.6797,571.8047 Q1004.3047,571.8047 1004.8984,571.5391 Q1005.4922,571.2578 1006.1172,570.6797 L1006.1172,573.3984 Z " fill="#000000"/><text fill="#000000" font-family="Verdana" font-size="14" lengthAdjust="spacing" textLength="118.7881" x="1025.6484" y="572.6045">SettingsManager</text><line style="stroke:#000000;stroke-width:1;" x1="936" x2="1206.585" y1="585.9063" y2="585.9063"/><text fill="#000000" font-family="Verdana" font-size="14" lengthAdjust="spacing" textLength="148.3398" x="946" y="607.9014">-lockShortcut : String</text><text fill="#000000" font-family="Verdana" font-size="14" lengthAdjust="spacing" textLength="250.585" x="946" y="634.1982">-autoLockOnGameLaunch : boolean</text><line style="stroke:#000000;stroke-width:1;" x1="936" x2="1206.585" y1="646.5" y2="646.5"/><text fill="#000000" font-family="Verdana" font-size="14" lengthAdjust="spacing" textLength="192.8418" x="946" y="668.4951">+getLockShortcut() : String</text><text fill="#000000" font-family="Verdana" font-size="14" lengthAdjust="spacing" textLength="109.9971" x="946" y="694.792">+loadSettings()</text><text fill="#000000" font-family="Verdana" font-size="14" lengthAdjust="spacing" textLength="112.8477" x="946" y="721.0889">+saveSettings()</text></g><!--class WindowManager--><g class="entity" data-entity="WindowManager" data-source-line="54" data-uid="ent0010" id="entity_WindowManager"><rect fill="#FFFFFF" height="131.1875" rx="4" ry="4" style="stroke:#000000;stroke-width:1;" width="380.7637" x="12" y="576.1094"/><ellipse cx="135.1948" cy="594.2578" fill="#FFFFFF" rx="9" ry="9" style="stroke:#000000;stroke-width:1;"/><path d="M138.1636,599.8984 Q137.5854,600.1953 136.9448,600.3359 Q136.3042,600.4922 135.6011,600.4922 Q133.1011,600.4922 131.7729,598.8516 Q130.4604,597.1953 130.4604,594.0703 Q130.4604,590.9453 131.7729,589.2891 Q133.1011,587.6328 135.6011,587.6328 Q136.3042,587.6328 136.9448,587.7891 Q137.6011,587.9453 138.1636,588.2422 L138.1636,590.9609 Q137.5386,590.3828 136.9448,590.1172 Q136.3511,589.8359 135.7261,589.8359 Q134.3823,589.8359 133.6948,590.9141 Q133.0073,591.9766 133.0073,594.0703 Q133.0073,596.1641 133.6948,597.2422 Q134.3823,598.3047 135.7261,598.3047 Q136.3511,598.3047 136.9448,598.0391 Q137.5386,597.7578 138.1636,597.1797 L138.1636,599.8984 Z " fill="#000000"/><text fill="#000000" font-family="Verdana" font-size="14" lengthAdjust="spacing" textLength="116.874" x="157.6948" y="599.1045">WindowManager</text><line style="stroke:#000000;stroke-width:1;" x1="13" x2="391.7637" y1="612.4063" y2="612.4063"/><line style="stroke:#000000;stroke-width:1;" x1="13" x2="391.7637" y1="620.4063" y2="620.4063"/><text fill="#000000" font-family="Verdana" font-size="14" lengthAdjust="spacing" textLength="240.3242" x="23" y="642.4014">+getActiveWindow() : WindowInfo</text><text fill="#000000" font-family="Verdana" font-size="14" lengthAdjust="spacing" textLength="358.7637" x="23" y="668.6982">+getWindowBounds(windowId : String) : Rectangle</text><text fill="#000000" font-family="Verdana" font-size="14" lengthAdjust="spacing" textLength="315.2871" x="23" y="694.9951">+isValidWindow(windowId : String) : boolean</text></g><!--class ScreenManager--><g class="entity" data-entity="ScreenManager" data-source-line="60" data-uid="ent0011" id="entity_ScreenManager"><rect fill="#FFFFFF" height="104.8906" rx="4" ry="4" style="stroke:#000000;stroke-width:1;" width="367.4268" x="493" y="589.1094"/><ellipse cx="613.0605" cy="607.2578" fill="#FFFFFF" rx="9" ry="9" style="stroke:#000000;stroke-width:1;"/><path d="M616.0293,612.8984 Q615.4512,613.1953 614.8105,613.3359 Q614.1699,613.4922 613.4668,613.4922 Q610.9668,613.4922 609.6387,611.8516 Q608.3262,610.1953 608.3262,607.0703 Q608.3262,603.9453 609.6387,602.2891 Q610.9668,600.6328 613.4668,600.6328 Q614.1699,600.6328 614.8105,600.7891 Q615.4668,600.9453 616.0293,601.2422 L616.0293,603.9609 Q615.4043,603.3828 614.8105,603.1172 Q614.2168,602.8359 613.5918,602.8359 Q612.248,602.8359 611.5605,603.9141 Q610.873,604.9766 610.873,607.0703 Q610.873,609.1641 611.5605,610.2422 Q612.248,611.3047 613.5918,611.3047 Q614.2168,611.3047 614.8105,611.0391 Q615.4043,610.7578 616.0293,610.1797 L616.0293,612.8984 Z " fill="#000000"/><text fill="#000000" font-family="Verdana" font-size="14" lengthAdjust="spacing" textLength="109.8057" x="635.5605" y="612.1045">ScreenManager</text><line style="stroke:#000000;stroke-width:1;" x1="494" x2="859.4268" y1="625.4063" y2="625.4063"/><line style="stroke:#000000;stroke-width:1;" x1="494" x2="859.4268" y1="633.4063" y2="633.4063"/><text fill="#000000" font-family="Verdana" font-size="14" lengthAdjust="spacing" textLength="237.8633" x="504" y="655.4014">+getScreens() : List&lt;ScreenInfo&gt;</text><text fill="#000000" font-family="Verdana" font-size="14" lengthAdjust="spacing" textLength="345.4268" x="504" y="681.6982">+getScreenBounds(screenId : String) : Rectangle</text></g><!--reverse link IEventBus to EventBus--><g class="link" data-entity-1="IEventBus" data-entity-2="EventBus" data-uid="lnk5" id="link_IEventBus_EventBus"><path d="M892.62,204.7094 C892.62,229.0294 892.62,234.6094 892.62,234.6094 C892.62,234.6094 526.83,234.6094 526.83,234.6094 C526.83,234.6094 526.83,308.1194 526.83,348.6094" fill="none" id="IEventBus-backto-EventBus" style="stroke:#000000;stroke-width:1;stroke-dasharray:7,7;"/><polygon fill="none" points="892.62,186.7094,886.62,204.7094,898.62,204.7094,892.62,186.7094" style="stroke:#000000;stroke-width:1;"/></g><!--reverse link CursorCageApp to CursorManager--><g class="link" data-entity-1="CursorCageApp" data-entity-2="CursorManager" data-source-line="79" data-uid="lnk12" id="link_CursorCageApp_CursorManager"><path codeLine="79" d="M596,211.9594 C596,261.7594 596,309.6094 596,309.6094 C596,309.6094 602.17,309.6094 612,309.6094" fill="none" id="CursorCageApp-backto-CursorManager" style="stroke:#000000;stroke-width:1;"/><polygon fill="#000000" points="596,199.9594,592,205.9594,596,211.9594,600,205.9594,596,199.9594" style="stroke:#000000;stroke-width:1;"/></g><!--reverse link CursorCageApp to EventBus--><g class="link" data-entity-1="CursorCageApp" data-entity-2="EventBus" data-source-line="80" data-uid="lnk13" id="link_CursorCageApp_EventBus"><path codeLine="80" d="M492.17,211.8294 C492.17,260.7794 492.17,313.0394 492.17,348.4094" fill="none" id="CursorCageApp-backto-EventBus" style="stroke:#000000;stroke-width:1;"/><polygon fill="#000000" points="492.17,199.8294,488.17,205.8294,492.17,211.8294,496.17,205.8294,492.17,199.8294" style="stroke:#000000;stroke-width:1;"/></g><!--reverse link CursorCageApp to SettingsManager--><g class="link" data-entity-1="CursorCageApp" data-entity-2="SettingsManager" data-source-line="81" data-uid="lnk14" id="link_CursorCageApp_SettingsManager"><path codeLine="81" d="M584.5,211.8094 C584.5,332.1294 584.5,563.6094 584.5,563.6094 C584.5,563.6094 790.81,563.6094 934.87,563.6094" fill="none" id="CursorCageApp-backto-SettingsManager" style="stroke:#000000;stroke-width:1;"/><polygon fill="#000000" points="584.5,199.8094,580.5,205.8094,584.5,211.8094,588.5,205.8094,584.5,199.8094" style="stroke:#000000;stroke-width:1;"/></g><!--reverse link CursorCageApp to WindowManager--><g class="link" data-entity-1="CursorCageApp" data-entity-2="WindowManager" data-source-line="84" data-uid="lnk15" id="link_CursorCageApp_WindowManager"><path codeLine="84" d="M434.5,211.9894 C434.5,336.1894 434.5,580.6094 434.5,580.6094 C434.5,580.6094 417.65,580.6094 393.02,580.6094" fill="none" id="CursorCageApp-backto-WindowManager" style="stroke:#000000;stroke-width:1;"/><polygon fill="#000000" points="434.5,199.9894,430.5,205.9894,434.5,211.9894,438.5,205.9894,434.5,199.9894" style="stroke:#000000;stroke-width:1;"/></g><!--reverse link CursorCageApp to ScreenManager--><g class="link" data-entity-1="CursorCageApp" data-entity-2="ScreenManager" data-source-line="85" data-uid="lnk16" id="link_CursorCageApp_ScreenManager"><path codeLine="85" d="M573,211.6794 C573,313.4994 573,495.6094 573,588.9394" fill="none" id="CursorCageApp-backto-ScreenManager" style="stroke:#000000;stroke-width:1;"/><polygon fill="#000000" points="573,199.6794,569,205.6794,573,211.6794,577,205.6794,573,199.6794" style="stroke:#000000;stroke-width:1;"/></g><!--reverse link CursorCageApp to HotkeyManager--><g class="link" data-entity-1="CursorCageApp" data-entity-2="HotkeyManager" data-source-line="86" data-uid="lnk17" id="link_CursorCageApp_HotkeyManager"><path codeLine="86" d="M619.74,191.6094 C840.47,191.6094 1344.5,191.6094 1344.5,191.6094 C1344.5,191.6094 1344.5,256.5494 1344.5,309.0594" fill="none" id="CursorCageApp-backto-HotkeyManager" style="stroke:#000000;stroke-width:1;"/><polygon fill="#000000" points="607.74,191.6094,613.74,195.6094,619.74,191.6094,613.74,187.6094,607.74,191.6094" style="stroke:#000000;stroke-width:1;"/></g><!--reverse link CursorCageApp to UIManager--><g class="link" data-entity-1="CursorCageApp" data-entity-2="UIManager" data-source-line="87" data-uid="lnk18" id="link_CursorCageApp_UIManager"><path codeLine="87" d="M619.63,195.6094 C762.84,195.6094 1000.25,195.6094 1000.25,195.6094 C1000.25,195.6094 1000.25,257.8894 1000.25,308.9694" fill="none" id="CursorCageApp-backto-UIManager" style="stroke:#000000;stroke-width:1;"/><polygon fill="#000000" points="607.63,195.6094,613.63,199.6094,619.63,195.6094,613.63,191.6094,607.63,195.6094" style="stroke:#000000;stroke-width:1;"/></g><!--reverse link CursorManager to WindowManager--><g class="link" data-entity-1="CursorManager" data-entity-2="WindowManager" data-source-line="90" data-uid="lnk19" id="link_CursorManager_WindowManager"><path codeLine="90" d="M694.67,491.7994 C694.67,544.6494 694.67,585.6094 694.67,585.6094 C694.67,585.6094 531.56,585.6094 393.14,585.6094" fill="none" id="CursorManager-backto-WindowManager" style="stroke:#000000;stroke-width:1;"/><polygon fill="none" points="694.67,479.7994,690.67,485.7994,694.67,491.7994,698.67,485.7994,694.67,479.7994" style="stroke:#000000;stroke-width:1;"/></g><!--reverse link CursorManager to ScreenManager--><g class="link" data-entity-1="CursorManager" data-entity-2="ScreenManager" data-source-line="91" data-uid="lnk20" id="link_CursorManager_ScreenManager"><path codeLine="91" d="M777.33,491.7494 C777.33,529.2594 777.33,557.8894 777.33,589.0594" fill="none" id="CursorManager-backto-ScreenManager" style="stroke:#000000;stroke-width:1;"/><polygon fill="none" points="777.33,479.7494,773.33,485.7494,777.33,491.7494,781.33,485.7494,777.33,479.7494" style="stroke:#000000;stroke-width:1;"/></g><!--reverse link HotkeyManager to SettingsManager--><g class="link" data-entity-1="HotkeyManager" data-entity-2="SettingsManager" data-source-line="92" data-uid="lnk21" id="link_HotkeyManager_SettingsManager"><path codeLine="92" d="M1344.5,452.2694 C1344.5,531.3194 1344.5,641.6094 1344.5,641.6094 C1344.5,641.6094 1276.52,641.6094 1208.4,641.6094" fill="none" id="HotkeyManager-backto-SettingsManager" style="stroke:#000000;stroke-width:1;"/><polygon fill="none" points="1344.5,440.2694,1340.5,446.2694,1344.5,452.2694,1348.5,446.2694,1344.5,440.2694" style="stroke:#000000;stroke-width:1;"/></g><!--reverse link UIManager to SettingsManager--><g class="link" data-entity-1="UIManager" data-entity-2="SettingsManager" data-source-line="93" data-uid="lnk22" id="link_UIManager_SettingsManager"><path codeLine="93" d="M1071.5,452.2694 C1071.5,485.1594 1071.5,513.5294 1071.5,549.4594" fill="none" id="UIManager-backto-SettingsManager" style="stroke:#000000;stroke-width:1;"/><polygon fill="none" points="1071.5,440.2694,1067.5,446.2694,1071.5,452.2694,1075.5,446.2694,1071.5,440.2694" style="stroke:#000000;stroke-width:1;"/></g><!--link IEventBus to CursorManager--><g class="link" data-entity-1="IEventBus" data-entity-2="CursorManager" data-source-line="96" data-uid="lnk24" id="link_IEventBus_CursorManager"><path codeLine="96" d="M904.75,186.8194 C904.75,229.8594 904.75,283.6094 904.75,283.6094 C904.75,283.6094 906.48,283.6094 891.16,283.6094" fill="none" id="IEventBus-to-CursorManager" style="stroke:#000000;stroke-width:1;"/><polygon fill="none" points="879.16,283.6094,885.16,287.6094,891.16,283.6094,885.16,279.6094,879.16,283.6094" style="stroke:#000000;stroke-width:1;"/></g><!--reverse link IEventBus to CursorManager--><g class="link" data-entity-1="IEventBus" data-entity-2="CursorManager" data-source-line="102" data-uid="lnk32" id="link_IEventBus_CursorManager"><path codeLine="102" d="M916.88,192.8694 C916.88,240.3194 916.88,296.6094 916.88,296.6094 C916.88,296.6094 901.17,296.6094 879.27,296.6094" fill="none" id="IEventBus-backto-CursorManager" style="stroke:#000000;stroke-width:1;stroke-dasharray:7,7;"/><polygon fill="#000000" points="916.88,186.8694,912.88,195.8694,916.88,191.8694,920.88,195.8694,916.88,186.8694" style="stroke:#000000;stroke-width:1;"/><text fill="#000000" font-family="Verdana" font-size="13" lengthAdjust="spacing" textLength="159.688" x="748.2379" y="236.6063">&#233;coute ToggleLockEvent</text><text fill="#000000" font-family="Verdana" font-size="13" lengthAdjust="spacing" textLength="166.4038" x="744.88" y="251.7391">publie LockStateChanged</text></g><!--link IEventBus to HotkeyManager--><g class="link" data-entity-1="IEventBus" data-entity-2="HotkeyManager" data-source-line="97" data-uid="lnk26" id="link_IEventBus_HotkeyManager"><path codeLine="97" d="M1246.33,186.6894 C1246.33,251.6194 1246.33,353.6094 1246.33,353.6094 C1246.33,353.6094 1241.67,353.6094 1252.34,353.6094" fill="none" id="IEventBus-to-HotkeyManager" style="stroke:#000000;stroke-width:1;"/><polygon fill="none" points="1264.34,353.6094,1258.34,349.6094,1252.34,353.6094,1258.34,357.6094,1264.34,353.6094" style="stroke:#000000;stroke-width:1;"/></g><!--reverse link IEventBus to HotkeyManager--><g class="link" data-entity-1="IEventBus" data-entity-2="HotkeyManager" data-source-line="101" data-uid="lnk30" id="link_IEventBus_HotkeyManager"><path codeLine="101" d="M1230.17,192.9194 C1230.17,269.5694 1230.17,396.6094 1230.17,396.6094 C1230.17,396.6094 1245.26,396.6094 1264.47,396.6094" fill="none" id="IEventBus-backto-HotkeyManager" style="stroke:#000000;stroke-width:1;stroke-dasharray:7,7;"/><polygon fill="#000000" points="1230.17,186.9194,1226.17,195.9194,1230.17,191.9194,1234.17,195.9194,1230.17,186.9194" style="stroke:#000000;stroke-width:1;"/><text fill="#000000" font-family="Verdana" font-size="13" lengthAdjust="spacing" textLength="39.9648" x="1148.7486" y="284.9763">publie</text><text fill="#000000" font-family="Verdana" font-size="13" lengthAdjust="spacing" textLength="111.1221" x="1113.17" y="300.1091">ToggleLockEvent</text></g><!--link IEventBus to UIManager--><g class="link" data-entity-1="IEventBus" data-entity-2="UIManager" data-source-line="98" data-uid="lnk28" id="link_IEventBus_UIManager"><path codeLine="98" d="M1071.5,186.8894 C1071.5,222.8394 1071.5,258.6894 1071.5,297.0794" fill="none" id="IEventBus-to-UIManager" style="stroke:#000000;stroke-width:1;"/><polygon fill="none" points="1071.5,309.0794,1075.5,303.0794,1071.5,297.0794,1067.5,303.0794,1071.5,309.0794" style="stroke:#000000;stroke-width:1;"/></g><!--reverse link IEventBus to UIManager--><g class="link" data-entity-1="IEventBus" data-entity-2="UIManager" data-source-line="103" data-uid="lnk34" id="link_IEventBus_UIManager"><path codeLine="103" d="M1142.75,192.8894 C1142.75,228.8394 1142.75,270.6894 1142.75,309.0794" fill="none" id="IEventBus-backto-UIManager" style="stroke:#000000;stroke-width:1;stroke-dasharray:7,7;"/><polygon fill="#000000" points="1142.75,186.8894,1138.75,195.8894,1142.75,191.8894,1146.75,195.8894,1142.75,186.8894" style="stroke:#000000;stroke-width:1;"/><text fill="#000000" font-family="Verdana" font-size="13" lengthAdjust="spacing" textLength="44.4336" x="1053.6865" y="224.0463">&#233;coute</text><text fill="#000000" font-family="Verdana" font-size="13" lengthAdjust="spacing" textLength="122.3066" x="1014.75" y="239.1791">LockStateChanged</text></g><!--SRC=[ZLLTZYCr47xlKvWdEWnPmQ8LQ8H66cPPY3ImY8JbPLuSTqstYLEs_9CX82GEmILoZjo4ar1s9prsfqVYgLjLhg- -glfS_iXti0Lc59TOkOr4motVCg6uSxVUMxaE7XP2urB-0Uopx8ZL0HkXBO9bNsLs9H7ytW3JrdSwSw1km85XRmeKZfje_38t6juq4blsfggyz0hOMybRSX3H1jXTv0QEVNZDhjbTi4xREzu2gs-jwAG7uOEbaED1w63KyG2pgfBemJvo0MpnxGxGVnCS-xDYx8gvi7Q2oeGQecCLcL-p9LMExQTCSANMN6p8z2wWy5BZB8MPi5RITPD1Xk-LvWrPtgz_8pgpwg-gIXtDwDuQSsRWkVNrxFIlJVgTCudIIwwexM_103Q0GeAhCx2X4harYgQ8tXNbZRB-m97osfILuDsz5Xk8BDTQA-2Op29O6m7YS1tvVYR-75i5YPwYa9N-LMAZd-gdz5aqG-MpxCnIM02iNVfSd0aOJvqA5HrG1BSj-0zKRoFzFg_oU-qtiC_9Np4BhNGqqTvtwfsA9Zo1QknzFraWiJGvu2-B4inr-ca9tXCxTu8Afk4ULfRle_JhorxDXiWVjPUFKl0eZNhhsgpI8UCPlPn0RC6oeriYWX-YaeS7hsF6z_WTty8z9-LrnPok63NhFeklPpb2709lHZKvleFCD93hfrcsXD1lIUmxE8qwelU_2tpKvoEzfPVAX1ekr2DTck-ByibAV6vT4j05kzxi4h5xcllNlI6okodFdEXT2h6WH_a-Pk-q5PH4fNKeqeLYWAIh5i5LNXDcTo8nqRh1MjosmLeK4lDDu1LIVuuirJFO1nttx5UIi3vdyvl-Bor7lJNQoIZDgjmydyo9ECv7NAVFd3VA2-unlJELrmELB_uNbRAPB-GgcZXzfcpYz9ddrX7R1SObJSGSg-cPEHxQT9bdxD-__s6Dj6Ud8zq83-S-d3MfvzFSSt_9kzneoJ_guVEAclAMd7TWixL_aJoOUUOTfowzUThI4s-72h-pus5tF62w6XBK6EzLCAzkiYVekdycuG5NkgLh5ZTMSevONiQbnzi36yKzO0_8qkxpjAFlEhh0q6JKNmHxm77KVm00]--></g></svg>